<svg viewBox="0 0 96 96" xmlns="http://www.w3.org/2000/svg" xmlns:xlink="http://www.w3.org/1999/xlink" id="Icons_Network" overflow="hidden"><path d="M85 37.4C83.3 33.3 78.6 31.4 74.5 33.1 71.1 34.5 69.1 38.1 69.6 41.6L56.7 47C55.3 44.6 52.8 42.8 50 42.3L50 28.4C53.4 27.5 56 24.4 56 20.7 56 16.3 52.4 12.7 48 12.7L48 12.7C43.6 12.7 40 16.3 40 20.7 40 24.4 42.6 27.5 46 28.4L46 42.2C43.1 42.7 40.7 44.5 39.3 46.9L26.4 41.5C26.9 38 25 34.4 21.5 33 17.4 31.3 12.7 33.2 11 37.3 9.3 41.4 11.2 46.1 15.3 47.8 18.7 49.2 22.6 48.1 24.7 45.2L37.9 50.6C37.8 51 37.8 51.5 37.8 51.9 37.8 54.1 38.5 56.2 39.8 57.9L29.4 68.4C26.3 66.6 22.3 67 19.7 69.6 16.6 72.7 16.6 77.8 19.7 80.9 22.8 84 27.9 84 31 80.9 33.6 78.3 34 74.3 32.2 71.2L42.8 60.6C44.3 61.5 46 62 47.8 62 47.9 62 47.9 62 48 62 48.1 62 48.1 62 48.2 62 50 62 51.7 61.5 53.2 60.6L63.8 71.2C62 74.3 62.4 78.3 65 81 68.1 84.1 73.2 84.1 76.3 81 79.4 77.9 79.4 72.8 76.3 69.7 73.7 67.1 69.7 66.7 66.6 68.5L56.2 58C57.5 56.3 58.2 54.3 58.2 52 58.2 51.6 58.2 51.1 58.1 50.7L71.3 45.3C73.4 48.1 77.3 49.3 80.7 47.9 84.7 46.1 86.7 41.5 85 37.4Z" fill="#FF004F"/></svg>